<?xml version="1.0" encoding="utf-8"?>
<!-- Generator: Adobe Illustrator 23.0.1, SVG Export Plug-In . SVG Version: 6.00 Build 0)  -->
<svg version="1.1" id="Layer_1" xmlns="http://www.w3.org/2000/svg" xmlns:xlink="http://www.w3.org/1999/xlink" x="0px" y="0px"
	 viewBox="0 0 390.55 50.17" style="enable-background:new 0 0 390.55 50.17;" xml:space="preserve">
<style type="text/css">
	.st0{fill:#FFFFFF;}
	.st1{font-family:'CourierNewPS-ItalicMT';}
	.st2{font-size:14.0716px;}
	.st3{font-size:14px;}
</style>
<rect width="390.55" height="50.17"/>
<path class="st0" d="M120.02,34.82c2.51-4.91,1.23-10.35-4.2-14.14c-2.93-2.05-7.18-3.5-11.18-4.13c-3.07-0.48-4.81-0.4-7.39,0.45
	c0.86-1.37,0.36-2.46-0.59-4.03c-1.21-2.01-3.61-3.67-6.25-4.74c-4.85-1.98-11.43-2.26-15.99,0.16c-0.07-0.08-0.16-0.14-0.23-0.22
	c-0.14,0.12-0.28,0.24-0.44,0.35C64.2,4.11,51.27,1.27,40.03,3.4C35,4.36,30.1,6.46,26.82,9.42c-3.49,3.16-4.17,7.56-3.84,11.5
	c-2.96-0.22-5.9,0.28-8.33,1.6c-3.15,1.71-2.87,3.64-2.71,6.26c0,0.01,0.01,0.02,0.01,0.04c-4.41,1.34-8.18,4.31-9.43,7.31
	c-2.59,6.2,5,8.93,12.36,9.73c1.07,0.12,1.53-1.04,0.45-1.16C8.91,44,1.52,41.83,4.36,36.11c1.32-2.67,4.94-5.41,9.04-6.43
	c-0.09-0.2-0.16-0.41-0.2-0.62c0.07-0.08,0.13-0.17,0.12-0.29c-0.05-0.8-0.14-1.6-0.14-2.4c0.01-1.49,1.07-2.48,2.73-3.29
	c2.27-1.1,5.01-1.46,7.69-1.12c0.67,0.08,1.03-0.46,0.78-0.77c-0.4-4.26,0.36-8.82,4.6-12.03c3.58-2.71,8.47-4.53,13.57-5.15
	c10.44-1.27,21.76,1.3,30.54,5.35c-0.07,0.48,0.81,0.93,1.43,0.5c3.59-2.47,9.2-2.49,13.57-1.13c2.02,0.63,3.77,1.52,5.19,2.71
	c2.58,2.17,3.27,4.22,1.21,6.53c-0.44,0.49-0.52,1.35,0.12,1.27c0.13,0,0.27-0.02,0.42-0.08c3.48-1.42,6.53-2.03,10.5-1.22
	c3.31,0.68,6.61,1.85,9.1,3.55c5.24,3.58,6.25,9,3.41,13.61c-0.45,0.33-0.14,0.97,0.57,1c0.17,0.03,0.33,0.02,0.49-0.03
	c5.41-0.79,11.14,3.54,7,7.1c-3.04,2.62-10.56,1.57-14.29,0.41c-0.99-0.31-1.86,0.73-0.86,1.04c5.21,1.6,15.42,2.67,17.66-2.3
	C130.46,38.19,125.67,34.58,120.02,34.82z"/>
<text transform="matrix(1.1344 0 0 1 25.0005 26.2588)" class="st0 st1 st2">Fra vær</text>
<text transform="matrix(1.1344 0 0 1 25.0005 43.1484)" class="st0 st1 st2">til klær</text>
<text transform="matrix(1.0727 0 0 1 150.9117 26.541)" class="st0 st1 st3">legg inn temperatur og vær</text>
<text transform="matrix(1.0727 0 0 1 150.9117 43.3408)" class="st0 st1 st3">så bestemmer vi klær</text>
</svg>
